<?xml version="1.0" encoding="utf-8"?>
<!-- Generator: Adobe Illustrator 27.0.0, SVG Export Plug-In . SVG Version: 6.00 Build 0)  -->
<svg version="1.1" id="Mode_Isolation" xmlns="http://www.w3.org/2000/svg" xmlns:xlink="http://www.w3.org/1999/xlink" x="0px"
	 y="0px" viewBox="0 0 255.12 290.24" style="enable-background:new 0 0 255.12 290.24;" xml:space="preserve">
<style type="text/css">
	.st0{fill:#E1251B;}
	.st1{fill:#FFFFFF;}
	.st2{opacity:0;}
	.st3{fill:none;stroke:#ed576a;stroke-width:0.7087;stroke-linecap:round;stroke-linejoin:round;stroke-miterlimit:10;}
</style>
<symbol  id="Djezzy_x5F_Logo" viewBox="-255.12 -145.12 255.12 290.24">
	<path id="XMLID_00000108310163610126864710000009836255920030551729_" class="st0" d="M-233.86,143.2L-7.09,12.27
		c9.45-5.45,9.45-19.09,0-24.55L-233.86-143.2c-9.45-5.45-21.26,1.36-21.26,12.27v261.86C-255.12,141.84-243.31,148.66-233.86,143.2
		z"/>
	<g id="XMLID_00000090991775443092284770000012528628366097459120_">
		<g id="XMLID_00000031168353066505358890000011021664751145552570_">
			<g id="XMLID_00000181054973100926940370000008704536877307381427_">
				<path id="XMLID_00000149377715517171981740000005369941661100681629_" class="st1" d="M-240.95-21.26h14.57
					c13.44,0,19.05,7.71,19.05,18.76v5.9c0,11.27-6.35,17.85-19.56,17.85h-14.06V-21.26z M-233.64-15.13v30.27h6.74
					c7.93,0,12.07-3.91,12.07-12.08V-2.1c0-8.44-3.57-13.03-11.56-13.03H-233.64z"/>
				<path id="XMLID_00000076606004495878664050000002941795171217303940_" class="st1" d="M-203.2-21.26h6.07
					c8.33,0,13.21,4.87,13.21,13.1v29.42h-17.51v-6.12h10.26V-8.16c0-4.55-2.1-6.97-6.29-6.97h-5.73V-21.26z"/>
				<path id="XMLID_00000038374723864088041890000006345042414710077589_" class="st1" d="M-165.81-21.26h14.74v6.13h-13.38
					c-3.57,0-5.15,1.74-5.15,5.84v7.01h16.38v6.19h-16.38v11.22h18.19v6.12h-25.51V-9.75C-176.92-17.35-173.17-21.26-165.81-21.26"
					/>
				<path id="XMLID_00000137815451659541448370000001656747501313239736_" class="st1" d="M-145.91-21.26h30.44v6.13h-20.35
					c5.79,7.64,16.61,24.71,20.07,32.98v3.41h-29.19v-6.12h19.79c-3.52-8.45-14.75-25-20.75-32.65V-21.26z"/>
				<path id="XMLID_00000135681272100229633200000011169961155187080850_" class="st1" d="M-111.16-21.26h30.44v6.13h-20.35
					C-95.29-7.49-84.46,9.57-81,17.85v3.41h-29.18v-6.12h19.77c-3.51-8.45-14.73-25-20.74-32.65V-21.26z"/>
				<polygon id="XMLID_00000008135250625621534560000007902430520198345362_" class="st1" points="-63.66,-21.26 -56.42,-21.26 
					-56.42,-4.3 -42.52,20.8 -42.52,21.26 -49.55,21.26 -59.75,1.76 -69.73,21.26 -77.27,21.26 -77.27,20.8 -63.66,-4.54 				"/>
			</g>
		</g>
		<g id="XMLID_00000013905241477620015140000015531133157353427126_">
			<path id="XMLID_00000019638554110377856700000008724504230199129995_" class="st1" d="M-197.8-45.35v-7.04
				c0-7.9-3.47-11.19-11.02-11.19v4.21c4.1,0,6.11,2.02,6.11,6.23v7.8H-197.8z"/>
			<g id="XMLID_00000181083120997914992200000012949775701179878791_">
				<path id="XMLID_00000096752933306270896130000003027207983510525105_" class="st1" d="M-157.3-38.69
					c-2.38,1.62-5.18,2.41-8.44,2.41c-1.93,0-3.87-0.4-5.79-1.23c-1.8-0.8-3.34-1.85-4.71-3.11c1.11-1.68,1.9-2.95,2.38-3.87
					c1.06,1.19,2.37,2.11,3.96,2.78c1.36,0.56,2.59,0.82,3.68,0.82c3.21,0,5.75-1.1,7.55-3.33c1.54-1.94,2.3-4.26,2.3-6.98h-25.22
					c-1.85,0-3.11,0.26-3.77,0.74c-0.93,0.65-1.4,2.06-1.4,4.21v10.81h-4.87v-12.78c0-2.42,0.56-4.3,1.75-5.71
					c1.27-1.54,3.07-2.28,5.44-2.28h33.38v3.07C-151.07-46.25-153.14-41.46-157.3-38.69z"/>
			</g>
			<path id="XMLID_00000052792776847616198720000000403450521839469996_" class="st1" d="M-221.77-47.88
				c0.84,1.99,2.06,3.39,3.6,4.14c1.27,0.62,3.11,0.93,5.53,0.93v4.56c-9.44,0-14.8-5.09-14.8-14.4h11.14
				c-1.55-3.9-4.72-6.14-9.41-6.14c-3.29,0-5.89,1-7.69,3.07c-1.75,1.92-2.63,4.53-2.63,7.77v4.34h-4.93v-4.87
				c0-4.26,1.45-7.87,4.35-10.71c2.91-2.84,6.51-4.3,10.76-4.3h0.31c4.25,0,7.81,1.45,10.7,4.3c1.9,1.84,3.17,3.99,3.83,6.43
				c0.27,0.93,0.74,2.97,0.74,4.89H-221.77z"/>
			<circle id="XMLID_00000070107289196584357560000001602536526310886031_" class="st1" cx="-165.83" cy="-61.12" r="2.46"/>
			<circle id="XMLID_00000025420498804534098900000013318211908891400354_" class="st1" cx="-200.26" cy="-40.43" r="2.46"/>
			<g id="XMLID_00000119112051704040216550000011430669851562930049_">
				<circle id="XMLID_00000062876981817420988570000006097057853794717882_" class="st1" cx="-221.67" cy="-68.41" r="2.46"/>
				<circle id="XMLID_00000140731614064340324610000011298007864655862688_" class="st1" cx="-229.7" cy="-68.41" r="2.46"/>
			</g>
		</g>
	</g>
</symbol>
<symbol  id="Nouveau_symbole" viewBox="-28.35 -14.17 28.35 28.35">
	<g id="XMLID_906_" class="st2">
		<g>
			<path d="M-14.17,13.46C-6.75,13.46-0.71,7.42-0.71,0s-6.04-13.46-13.46-13.46S-27.64-7.42-27.64,0S-21.6,13.46-14.17,13.46
				 M-14.17,14.17C-22,14.17-28.35,7.83-28.35,0S-22-14.17-14.17-14.17S0-7.83,0,0S-6.35,14.17-14.17,14.17L-14.17,14.17z"/>
		</g>
	</g>
	<g id="XMLID_901_" class="st2">
		<line id="XMLID_905_" class="st3" x1="-25.56" y1="0" x2="-21.26" y2="0"/>
		<line id="XMLID_904_" class="st3" x1="-14.17" y1="-11.39" x2="-14.17" y2="-7.09"/>
		<line id="XMLID_903_" class="st3" x1="-2.78" y1="0" x2="-7.09" y2="0"/>
		<line id="XMLID_902_" class="st3" x1="-14.17" y1="11.39" x2="-14.17" y2="7.09"/>
	</g>
	<g id="XMLID_898_" class="st2">
		<line id="XMLID_900_" class="st3" x1="-9.02" y1="-5.15" x2="-19.33" y2="5.15"/>
		<line id="XMLID_899_" class="st3" x1="-9.02" y1="5.15" x2="-19.33" y2="-5.15"/>
	</g>
	<g id="XMLID_888_" class="st2">
		<line id="XMLID_897_" class="st3" x1="-7.09" y1="7.09" x2="-5.3" y2="7.09"/>
		<line id="XMLID_896_" class="st3" x1="-7.09" y1="-7.09" x2="-5.3" y2="-7.09"/>
		<line id="XMLID_895_" class="st3" x1="-21.26" y1="7.09" x2="-23.04" y2="7.09"/>
		<line id="XMLID_894_" class="st3" x1="-21.26" y1="-7.09" x2="-23.04" y2="-7.09"/>
		<line id="XMLID_893_" class="st3" x1="-7.09" y1="-7.09" x2="-7.09" y2="-8.87"/>
		<line id="XMLID_892_" class="st3" x1="-21.26" y1="-7.09" x2="-21.26" y2="-8.87"/>
		<line id="XMLID_891_" class="st3" x1="-7.09" y1="7.09" x2="-7.09" y2="8.87"/>
		<line id="XMLID_890_" class="st3" x1="-21.26" y1="7.09" x2="-21.26" y2="8.87"/>
	</g>
</symbol>
<g id="LogotypeDjezzy_1_">
	
		<use xlink:href="#Djezzy_x5F_Logo"  width="255.12" height="290.24" id="XMLID_97_" x="-255.12" y="-145.12" transform="matrix(1 0 0 -1 255.1181 145.1213)" style="overflow:visible;"/>
</g>
</svg>
